<?xml version="1.0" standalone="no"?>
<!DOCTYPE svg PUBLIC "-//W3C//DTD SVG 20010904//EN"
 "http://www.w3.org/TR/2001/REC-SVG-20010904/DTD/svg10.dtd">
<svg version="1.0" xmlns="http://www.w3.org/2000/svg"
 width="200.000000pt" height="200.000000pt" viewBox="0 0 200.000000 200.000000"
 preserveAspectRatio="xMidYMid meet">

<g transform="translate(0.000000,200.000000) scale(0.100000,-0.100000)"
fill="#fff" stroke="none">
<path d="M1526 1203 c-13 -14 -5 -23 21 -23 77 0 166 -83 179 -166 8 -53 24
-59 24 -9 0 69 -70 165 -134 184 -54 16 -83 21 -90 14z"/>
<path d="M1526 1143 c-13 -13 -5 -23 17 -23 53 0 127 -75 127 -128 0 -15 5
-22 13 -19 25 8 -1 95 -39 128 -35 30 -104 55 -118 42z"/>
<path d="M1527 1083 c-13 -12 -7 -23 13 -23 27 0 70 -43 70 -70 0 -19 15 -28
23 -12 9 16 -15 73 -36 86 -30 19 -62 28 -70 19z"/>
<path d="M392 1040 c-28 -12 -45 -54 -36 -92 4 -20 17 -34 40 -45 32 -16 36
-16 61 3 33 25 44 51 17 39 -46 -18 -53 -17 -66 10 -8 17 -9 32 -2 42 12 19
30 13 26 -10 -1 -14 4 -18 20 -15 14 2 24 11 26 24 5 35 -44 60 -86 44z"/>
<path d="M1237 1033 c-4 -3 -7 -35 -7 -70 0 -49 3 -63 15 -63 11 0 15 11 15
38 l0 37 20 -32 c11 -18 24 -33 30 -33 5 0 16 15 24 33 l14 32 1 -37 c1 -31 5
-38 21 -38 18 0 20 7 20 70 0 67 -1 70 -24 70 -19 0 -27 -8 -36 -35 -6 -19
-15 -35 -19 -35 -4 0 -13 16 -20 35 -12 33 -37 46 -54 28z"/>
<path d="M1132 1002 c-8 -17 -9 -28 -2 -30 5 -2 10 -19 10 -38 0 -33 2 -35 27
-32 18 2 29 10 31 22 3 11 0 16 -7 12 -7 -4 -11 1 -11 13 0 10 6 22 13 25 10
5 10 7 0 12 -7 3 -13 14 -13 25 0 29 -33 23 -48 -9z"/>
<path d="M526 984 c-40 -40 4 -105 57 -85 33 13 43 45 23 76 -19 29 -57 33
-80 9z m44 -34 c0 -16 -4 -30 -10 -30 -11 0 -14 43 -3 53 11 12 13 8 13 -23z"/>
<path d="M645 991 c-3 -2 -5 -24 -5 -48 0 -37 3 -44 18 -41 11 2 18 14 20 36
4 43 22 41 22 -3 0 -29 4 -35 21 -35 18 0 20 5 17 48 l-3 47 -43 1 c-23 0 -45
-2 -47 -5z"/>
<path d="M764 974 c-9 -35 0 -69 19 -72 13 -3 17 3 17 27 0 16 5 33 10 36 6 3
10 -3 10 -14 0 -30 11 -51 26 -51 19 0 29 46 16 74 -9 19 -18 23 -52 22 -33 0
-42 -5 -46 -22z"/>
<path d="M906 987 c-19 -14 -25 -62 -10 -77 22 -19 52 -20 75 -1 l24 20 -35 1
-35 2 28 10 c21 7 27 16 25 32 -4 26 -44 33 -72 13z m44 -17 c0 -5 -4 -10 -10
-10 -5 0 -10 5 -10 10 0 6 5 10 10 10 6 0 10 -4 10 -10z"/>
<path d="M1028 989 c-27 -16 -23 -65 7 -85 23 -15 27 -15 53 2 l27 19 -32 3
c-27 3 -33 7 -33 28 0 13 4 24 10 24 5 0 7 -6 4 -14 -8 -21 16 -30 34 -13 32
32 -26 62 -70 36z"/>
<path d="M1436 987 c-19 -14 -25 -62 -10 -77 22 -19 52 -20 75 -1 l24 20 -35
2 c-31 1 -32 2 -10 8 36 10 36 55 0 59 -14 2 -33 -3 -44 -11z m44 -17 c0 -5
-4 -10 -10 -10 -5 0 -10 5 -10 10 0 6 5 10 10 10 6 0 10 -4 10 -10z"/>
</g>
</svg>
